<mxfile host="65bd71144e">
    <diagram name="Page-1" id="7XtTj-USBvoYxYCN9RBz">
        <mxGraphModel dx="532" dy="147" grid="1" gridSize="10" guides="1" tooltips="1" connect="1" arrows="1" fold="1" page="1" pageScale="1" pageWidth="827" pageHeight="1169" math="0" shadow="0">
            <root>
                <mxCell id="0"/>
                <mxCell id="1" parent="0"/>
                <mxCell id="51kbtcMMYm9rbuUGopCg-25" value="" style="whiteSpace=wrap;html=1;aspect=fixed;" parent="1" vertex="1">
                    <mxGeometry x="130" y="100" width="530" height="530" as="geometry"/>
                </mxCell>
                <mxCell id="51kbtcMMYm9rbuUGopCg-1" value="Utilisateur" style="shape=umlActor;verticalLabelPosition=bottom;verticalAlign=top;html=1;" parent="1" vertex="1">
                    <mxGeometry x="50" y="190" width="30" height="60" as="geometry"/>
                </mxCell>
                <mxCell id="51kbtcMMYm9rbuUGopCg-2" value="Créer un compte" style="ellipse;whiteSpace=wrap;html=1;" parent="1" vertex="1">
                    <mxGeometry x="230" y="60" width="110" height="60" as="geometry"/>
                </mxCell>
                <mxCell id="51kbtcMMYm9rbuUGopCg-3" value="Se connecter" style="ellipse;whiteSpace=wrap;html=1;" parent="1" vertex="1">
                    <mxGeometry x="260" y="240" width="110" height="60" as="geometry"/>
                </mxCell>
                <mxCell id="51kbtcMMYm9rbuUGopCg-4" value="Démarrer une conversation" style="ellipse;whiteSpace=wrap;html=1;" parent="1" vertex="1">
                    <mxGeometry x="340" y="130" width="130" height="60" as="geometry"/>
                </mxCell>
                <mxCell id="51kbtcMMYm9rbuUGopCg-5" value="Régler les paramètres" style="ellipse;whiteSpace=wrap;html=1;" parent="1" vertex="1">
                    <mxGeometry x="480" y="220" width="140" height="70" as="geometry"/>
                </mxCell>
                <mxCell id="51kbtcMMYm9rbuUGopCg-6" value="Voir l'historique des conversations" style="ellipse;whiteSpace=wrap;html=1;" parent="1" vertex="1">
                    <mxGeometry x="230" y="350" width="140" height="70" as="geometry"/>
                </mxCell>
                <mxCell id="51kbtcMMYm9rbuUGopCg-7" value="Reprendre une conversation" style="ellipse;whiteSpace=wrap;html=1;" parent="1" vertex="1">
                    <mxGeometry x="480" y="350" width="140" height="70" as="geometry"/>
                </mxCell>
                <mxCell id="51kbtcMMYm9rbuUGopCg-8" value="&amp;lt;&amp;lt;include&amp;gt;&amp;gt;" style="endArrow=open;endSize=12;dashed=1;html=1;rounded=0;entryX=1;entryY=0;entryDx=0;entryDy=0;" parent="1" source="51kbtcMMYm9rbuUGopCg-4" target="51kbtcMMYm9rbuUGopCg-3" edge="1">
                    <mxGeometry width="160" relative="1" as="geometry">
                        <mxPoint x="330" y="280" as="sourcePoint"/>
                        <mxPoint x="320" y="310" as="targetPoint"/>
                    </mxGeometry>
                </mxCell>
                <mxCell id="51kbtcMMYm9rbuUGopCg-9" value="&amp;lt;&amp;lt;include&amp;gt;&amp;gt;" style="endArrow=open;endSize=12;dashed=1;html=1;rounded=0;exitX=0.357;exitY=0;exitDx=0;exitDy=0;exitPerimeter=0;entryX=0.58;entryY=0.977;entryDx=0;entryDy=0;entryPerimeter=0;" parent="1" source="51kbtcMMYm9rbuUGopCg-6" target="51kbtcMMYm9rbuUGopCg-3" edge="1">
                    <mxGeometry width="160" relative="1" as="geometry">
                        <mxPoint x="397" y="310" as="sourcePoint"/>
                        <mxPoint x="270" y="300" as="targetPoint"/>
                    </mxGeometry>
                </mxCell>
                <mxCell id="51kbtcMMYm9rbuUGopCg-19" value="" style="endArrow=none;html=1;rounded=0;entryX=0;entryY=0.5;entryDx=0;entryDy=0;" parent="1" target="51kbtcMMYm9rbuUGopCg-3" edge="1">
                    <mxGeometry relative="1" as="geometry">
                        <mxPoint x="100" y="220" as="sourcePoint"/>
                        <mxPoint x="260" y="220" as="targetPoint"/>
                    </mxGeometry>
                </mxCell>
                <mxCell id="51kbtcMMYm9rbuUGopCg-20" value="" style="endArrow=none;html=1;rounded=0;entryX=0;entryY=1;entryDx=0;entryDy=0;" parent="1" target="51kbtcMMYm9rbuUGopCg-2" edge="1">
                    <mxGeometry relative="1" as="geometry">
                        <mxPoint x="100" y="210" as="sourcePoint"/>
                        <mxPoint x="260" y="190" as="targetPoint"/>
                    </mxGeometry>
                </mxCell>
                <mxCell id="51kbtcMMYm9rbuUGopCg-21" value="Rechercher une conversation par titre ou date" style="ellipse;whiteSpace=wrap;html=1;" parent="1" vertex="1">
                    <mxGeometry x="300" y="460" width="140" height="70" as="geometry"/>
                </mxCell>
                <mxCell id="51kbtcMMYm9rbuUGopCg-22" value="&amp;lt;&amp;lt;extend&amp;gt;&amp;gt;" style="endArrow=open;endSize=12;dashed=1;html=1;rounded=0;exitX=0.277;exitY=0.04;exitDx=0;exitDy=0;exitPerimeter=0;entryX=0.731;entryY=0.983;entryDx=0;entryDy=0;entryPerimeter=0;" parent="1" source="51kbtcMMYm9rbuUGopCg-21" target="51kbtcMMYm9rbuUGopCg-6" edge="1">
                    <mxGeometry width="160" relative="1" as="geometry">
                        <mxPoint x="330" y="280" as="sourcePoint"/>
                        <mxPoint x="490" y="280" as="targetPoint"/>
                    </mxGeometry>
                </mxCell>
                <mxCell id="51kbtcMMYm9rbuUGopCg-23" value="&amp;lt;&amp;lt;extend&amp;gt;&amp;gt;" style="endArrow=open;endSize=12;dashed=1;html=1;rounded=0;exitX=0.031;exitY=0.691;exitDx=0;exitDy=0;exitPerimeter=0;entryX=1;entryY=0;entryDx=0;entryDy=0;" parent="1" source="51kbtcMMYm9rbuUGopCg-7" target="51kbtcMMYm9rbuUGopCg-21" edge="1">
                    <mxGeometry width="160" relative="1" as="geometry">
                        <mxPoint x="330" y="280" as="sourcePoint"/>
                        <mxPoint x="490" y="280" as="targetPoint"/>
                    </mxGeometry>
                </mxCell>
                <mxCell id="51kbtcMMYm9rbuUGopCg-24" value="&amp;lt;&amp;lt;extend&amp;gt;&amp;gt;" style="endArrow=open;endSize=12;dashed=1;html=1;rounded=0;exitX=0.234;exitY=0.097;exitDx=0;exitDy=0;exitPerimeter=0;entryX=0.972;entryY=0.653;entryDx=0;entryDy=0;entryPerimeter=0;" parent="1" source="51kbtcMMYm9rbuUGopCg-5" target="51kbtcMMYm9rbuUGopCg-4" edge="1">
                    <mxGeometry width="160" relative="1" as="geometry">
                        <mxPoint x="330" y="280" as="sourcePoint"/>
                        <mxPoint x="315" y="190" as="targetPoint"/>
                    </mxGeometry>
                </mxCell>
            </root>
        </mxGraphModel>
    </diagram>
</mxfile>